<?xml version="1.0" encoding="utf-8"?>
<!-- Generator: Adobe Illustrator 25.2.3, SVG Export Plug-In . SVG Version: 6.00 Build 0)  -->
<svg version="1.1" id="Layer_1" xmlns="http://www.w3.org/2000/svg" xmlns:xlink="http://www.w3.org/1999/xlink" x="0px" y="0px" width="800px" height="800px"
	 viewBox="0 0 90 90" style="enable-background:new 0 0 90 90;" xml:space="preserve">
<g>
	<path style="fill:#035287;" d="M78.97,43.97h-5.35V30.25c0-0.57-0.46-1.03-1.03-1.03s-1.03,0.46-1.03,1.03v13.73h-2.2V12.05h2.2
		v13.73c0,0.57,0.46,1.03,1.03,1.03s1.03-0.46,1.03-1.03V11.03c0-0.57-0.46-1.03-1.03-1.03h-4.25c-0.57,0-1.03,0.46-1.03,1.03v3.22
		H53.49c-0.57,0-1.03,0.46-1.03,1.03v3.22H40.75c-0.92,0.19-1.21,0.72-0.85,1.59l3.87,5.8l-3.87,5.8c-0.35,0.87-0.07,1.4,0.85,1.59
		h16.94c0.57,0,1.03-0.46,1.03-1.03v-3.22h8.61v14.94h-5.34c-0.57,0-1.03,0.46-1.03,1.03v7.47h-5.23c-0.57,0-1.03,0.46-1.03,1.03
		c0,0.57,0.46,1.03,1.03,1.03h5.23v23.43H46.03V54.52h5.23c0.57,0,1.03-0.46,1.03-1.03c0-0.57-0.46-1.03-1.03-1.03H45
		c-0.57,0-1.03,0.46-1.03,1.03v7.47H28.01c-0.57,0-1.03,0.46-1.03,1.03v7.47h-5.87c-0.57,0-1.03,0.46-1.03,1.03
		c0,0.57,0.46,1.03,1.03,1.03h5.87v6.44H12.05v-6.44h4.6c0.57,0,1.03-0.46,1.03-1.03c0-0.57-0.46-1.03-1.03-1.03h-5.62
		c-0.57,0-1.03,0.46-1.03,1.03v8.49c0,0.57,0.46,1.03,1.03,1.03l67.95,0c0.57,0,1.03-0.46,1.03-1.03V45
		C80,44.43,79.54,43.97,78.97,43.97L78.97,43.97z M56.67,31.23h-14l3.18-4.78c0.23-0.34,0.23-0.79,0-1.14l-3.18-4.78h9.8v7.47
		c0,0.57,0.46,1.03,1.03,1.03h3.17V31.23z M54.52,26.99V16.3h12.81v10.69H54.52z M29.04,63.01h14.94v14.94H29.04L29.04,63.01z
		 M77.95,77.95H63.01l0-31.92h14.94V77.95z"/>
</g>
</svg>
