<?xml version="1.0" encoding="iso-8859-1"?>
<!-- Uploaded to: SVG Repo, www.svgrepo.com, Generator: SVG Repo Mixer Tools -->
<svg fill="#0081d7" height="800px" width="800px" version="1.1" id="Layer_1" xmlns="http://www.w3.org/2000/svg" xmlns:xlink="http://www.w3.org/1999/xlink" 
	 viewBox="0 0 512.001 512.001" xml:space="preserve">
<g transform="translate(0 -1)">
	<g>
		<g>
			<path d="M503.467,329.535h-59.733v-51.2h59.734c4.713,0,8.533-3.82,8.533-8.533c0-4.713-3.82-8.533-8.533-8.533h-59.734v-0.002
				v-34.132h59.733c4.713,0,8.533-3.82,8.533-8.533s-3.82-8.533-8.533-8.533h-59.733v-78.14
				c14.659,16.215,36.967,26.94,59.733,26.94c4.713,0,8.533-3.82,8.533-8.533s-3.82-8.533-8.533-8.533
				c-30.238,0-59.733-24.633-59.733-51.2V56.468c0-14.142-11.458-25.6-25.6-25.6s-25.6,11.458-25.6,25.6v30.716
				c-1.888,1.897-4.15,4.026-6.781,6.331c-7.626,6.681-16.656,13.382-27.028,19.644c-29.654,17.902-64.012,28.634-102.725,28.634
				c-38.709,0-73.066-10.732-102.722-28.635c-10.373-6.262-19.403-12.963-27.03-19.644c-2.631-2.305-4.893-4.434-6.782-6.331V56.468
				c0-14.142-11.458-25.6-25.6-25.6c-14.142,0-25.6,11.458-25.6,25.6v34.133c0,26.567-29.495,51.2-59.733,51.2
				c-4.713,0-8.533,3.821-8.533,8.533s3.82,8.533,8.533,8.533c22.766,0,45.074-10.724,59.733-26.94v78.14H8.533
				c-4.713,0-8.533,3.821-8.533,8.533s3.82,8.533,8.533,8.533h59.733v34.132v0.002H8.534c-4.713,0-8.533,3.821-8.533,8.533
				c0,4.713,3.82,8.533,8.533,8.533h59.732v51.2H8.533c-4.713,0-8.533,3.821-8.533,8.533s3.82,8.533,8.533,8.533h59.733V397.8
				c-4.713,0-8.533,3.82-8.533,8.533v25.6H51.2c-4.713,0-8.533,3.821-8.533,8.533V474.6c0,4.713,3.82,8.533,8.533,8.533h85.333
				c4.713,0,8.533-3.82,8.533-8.533v-34.133c0-4.713-3.82-8.533-8.533-8.533H128v-25.6c0-4.713-3.82-8.533-8.533-8.533v-51.198
				h273.067V397.8c-4.713,0-8.533,3.82-8.533,8.533v25.6h-8.533c-4.713,0-8.533,3.821-8.533,8.533V474.6
				c0,4.713,3.82,8.533,8.533,8.533H460.8c4.713,0,8.533-3.82,8.533-8.533v-34.133c0-4.713-3.82-8.533-8.533-8.533h-8.533v-25.6
				c0-4.713-3.82-8.533-8.533-8.533v-51.198h59.733c4.713,0,8.533-3.82,8.533-8.533S508.18,329.535,503.467,329.535z
				 M324.267,261.268v-34.133h25.6v34.133H324.267z M264.533,261.268v-34.133H307.2v34.133H264.533z M162.133,261.268v-34.133h25.6
				v34.133H162.133z M119.467,261.268v-0.002v-34.132h25.6v34.133H119.467z M307.2,210.068h-42.667v-51.375
				c14.836-0.564,29.065-2.595,42.667-5.909V210.068z M323.927,147.967c8.948-2.982,17.597-6.529,25.94-10.588v72.688h-25.6v-59.733
				C324.267,149.512,324.144,148.72,323.927,147.967z M247.467,210.068H204.8v-57.285c13.602,3.315,27.831,5.345,42.667,5.91
				V210.068z M187.733,150.335v59.733h-25.6v-72.69c8.343,4.058,16.993,7.606,25.94,10.588
				C187.856,148.719,187.733,149.512,187.733,150.335z M204.8,227.135h42.667v34.133H204.8V227.135z M366.933,227.135h25.6v34.132
				v0.002h-25.6V227.135z M409.6,56.468c0-4.716,3.817-8.533,8.533-8.533s8.533,3.817,8.533,8.533v204.798H409.6V56.468z
				 M392.533,110.129v99.939h-25.6v-81.936c0.203-0.122,0.409-0.24,0.612-0.363C376.872,122.138,385.199,116.168,392.533,110.129z
				 M144.458,127.769c0.202,0.122,0.406,0.24,0.608,0.361v81.938h-25.6v-99.94C126.802,116.167,135.13,122.138,144.458,127.769z
				 M85.333,56.468c0-4.716,3.817-8.533,8.533-8.533c4.716,0,8.533,3.817,8.533,8.533v204.798H85.333V56.468z M128,466.066H59.733
				V449h8.533h51.2H128V466.066z M76.8,431.933v-17.067h34.133v17.067H76.8z M85.333,397.8V278.335H102.4V397.8H85.333z
				 M119.467,329.535v-51.2h273.067v51.2H119.467z M452.267,466.066H384V449h8.533h51.2h8.533V466.066z M401.067,431.933v-17.067
				H435.2v17.067H401.067z M409.6,397.8V278.335h17.067V397.8H409.6z"/>
			<path d="M196.267,380.735c-4.713,0-8.533,3.82-8.533,8.533c0,4.717-3.817,8.533-8.533,8.533s-8.533-3.817-8.533-8.533
				c0-4.713-3.82-8.533-8.533-8.533s-8.533,3.82-8.533,8.533c0,14.142,11.458,25.6,25.6,25.6s25.6-11.458,25.6-25.6
				C204.8,384.555,200.979,380.735,196.267,380.735z"/>
			<path d="M349.867,380.735c-4.713,0-8.533,3.82-8.533,8.533c0,4.717-3.817,8.533-8.533,8.533c-4.716,0-8.533-3.817-8.533-8.533
				c0-4.713-3.82-8.533-8.533-8.533s-8.533,3.82-8.533,8.533c0,14.142,11.458,25.6,25.6,25.6c14.142,0,25.6-11.458,25.6-25.6
				C358.4,384.555,354.58,380.735,349.867,380.735z"/>
			<path d="M273.067,423.401c-4.713,0-8.533,3.82-8.533,8.533c0,4.716-3.817,8.533-8.533,8.533s-8.533-3.817-8.533-8.533
				c0-4.713-3.82-8.533-8.533-8.533s-8.533,3.82-8.533,8.533c0,14.142,11.458,25.6,25.6,25.6s25.6-11.458,25.6-25.6
				C281.6,427.222,277.779,423.401,273.067,423.401z"/>
		</g>
	</g>
</g>
</svg>