<?xml version="1.0" encoding="utf-8"?>
<!-- Generator: Adobe Illustrator 19.2.1, SVG Export Plug-In . SVG Version: 6.00 Build 0)  -->
<svg version="1.1" id="layer" xmlns="http://www.w3.org/2000/svg" xmlns:xlink="http://www.w3.org/1999/xlink" x="0px" y="0px"
	 viewBox="0 0 652 652" style="enable-background:new 0 0 652 652;" xml:space="preserve">
<style type="text/css">
	.st0{fill:#000;}
</style>
<path class="st0" d="M123.2,452.6l-12.3-0.1l0.1-8.7l35.2,0.5l-0.1,8.7l-12.5-0.1l-0.5,37.1l-10.4-0.1L123.2,452.6z M144.9,484.5
	c-0.1,3.6,2.4,6.3,6,6.3c3.7,0.1,6.2-2.6,6.2-6.2c0.1-3.7-2.4-6.4-6-6.4C147.4,478.2,144.9,480.8,144.9,484.5 M197.7,481.2
	c-2.1,0.8-5.5,1.5-8.6,1.4c-9.3-0.1-14.6-6-14.5-15.1c0.1-10.2,6.6-15.1,14.8-15c3.6,0.1,6.6,0.9,8.7,1.8l2.2-8.2
	c-1.9-1-5.9-2.1-11.3-2.2c-13.9-0.2-25.1,8.4-25.3,24c-0.1,13,7.9,23,23.7,23.2c5.6,0.1,9.9-0.9,11.8-1.8L197.7,481.2z M204.7,485.2
	c0,3.6,2.4,6.3,6,6.3c3.7,0,6.2-2.6,6.2-6.2c0.1-3.7-2.4-6.4-6-6.4C207.3,478.9,204.7,481.5,204.7,485.2 M246.7,491.2l10.4,0.1
	l0.5-37.1l12.5,0.2l0.1-8.7l-35.2-0.5l-0.1,8.7l12.3,0.1L246.7,491.2z M284.8,472.2l2.8-9.7c0.8-2.6,1.5-6.1,2.2-8.8h0.1
	c0.7,2.7,1.4,6.1,2.2,8.8l2.7,9.8L284.8,472.2z M296.3,480.1l3.4,11.8l11.1,0.1l-13.6-45.9l-13.6-0.2l-14.5,45.6l10.7,0.1l3.4-11.7
	L296.3,480.1z M328.6,454.1c0.8-0.1,2.2-0.3,4.7-0.3c4.7,0.1,7.6,2.3,7.5,6.5c0,4-3.1,6.5-8.3,6.5l-4.1,0L328.6,454.1z M317.9,492.1
	l10.2,0.1l0.2-18l3.1,0.1c4.2,0.1,6.1,1.7,7.3,7.4c1.3,5.7,2.3,9.4,3,10.7l10.6,0.2c-0.9-1.8-2.2-7.8-3.6-12.9
	c-1.1-4.2-2.8-7.3-6-8.6v-0.2c3.9-1.4,8.2-5.3,8.2-11.1c0.1-4.2-1.4-7.4-4.1-9.6c-3.2-2.6-8-3.7-14.7-3.8
	c-5.5-0.1-10.5,0.3-13.8,0.8L317.9,492.1z M360.6,446.9l-0.6,45.7l10.4,0.1L371,447L360.6,446.9z M420.5,493.4l10.1,0.1l-2-45.8
	l-13.5-0.2l-5.1,15.2c-1.5,5.1-3.2,11.1-4.6,16.4l-0.2,0c-1-5.4-2.3-11.1-3.7-16.4l-4.3-15.3l-13.8-0.2l-3.5,45.7l9.6,0.1l1-17.4
	c0.4-5.7,0.7-12.8,1.1-18.9h0.1c1,6,2.5,12.5,3.9,17.9l4.7,17.8l8.1,0.1l5.8-17.8c1.8-5.4,3.8-11.8,5.3-17.7l0.2,0
	c-0.1,6.6,0,13.3,0.2,18.8L420.5,493.4z M478.7,494.1l16-45.6l-11-0.1l-6.1,19.5c-1.6,5.2-3.1,10.6-4.3,16.1H473
	c-1-5.7-2.4-10.9-3.9-16.4l-5.3-19.4l-11.3-0.1l14.1,46L478.7,494.1z M528.1,466.9l-16.8-0.2l0.1-9.5l17.9,0.2l0.1-8.5l-28.2-0.4
	l-0.6,45.8l29.2,0.4l0.1-8.5L511,486l0.1-10.9l16.8,0.2L528.1,466.9z M28.7,541.9c0.1-8.9,4.3-15.5,11.3-15.4
	c7.1,0.1,11,7.2,10.9,15.4c-0.1,8.9-4.2,15.5-11.2,15.4C32.8,557.2,28.6,550.9,28.7,541.9 M61.8,541.7c0.2-12.6-7.4-23.3-21.5-23.4
	c-13.5-0.2-22.4,10-22.5,23.7c-0.2,13.1,7.6,23.4,21.2,23.6C52.4,565.7,61.6,556.7,61.8,541.7 M80.8,527.2c0.8-0.1,2.2-0.3,4.7-0.3
	c4.8,0.1,7.6,2.3,7.5,6.5c-0.1,4-3.1,6.6-8.3,6.5l-4.1-0.1L80.8,527.2z M70.1,565.2l10.2,0.1l0.2-18l3.1,0.1
	c4.2,0.1,6.2,1.7,7.3,7.4c1.3,5.7,2.3,9.4,3,10.7l10.6,0.2c-0.9-1.8-2.2-7.8-3.6-12.9c-1.1-4.2-2.8-7.3-6-8.6v-0.2
	c3.9-1.3,8.1-5.3,8.2-11.1c0.1-4.2-1.4-7.4-4.1-9.6c-3.2-2.6-8-3.7-14.8-3.8c-5.5-0.1-10.5,0.3-13.8,0.8L70.1,565.2z M151.5,566.2
	l10.1,0.1l-2-45.8l-13.5-0.2l-5.1,15.2c-1.6,5.1-3.2,11.1-4.6,16.4h-0.2c-1-5.4-2.3-11.1-3.7-16.4l-4.3-15.3l-13.8-0.2l-3.5,45.7
	l9.6,0.1l1-17.4c0.4-5.7,0.7-12.8,1-18.9h0.1c1,6,2.5,12.5,3.9,17.9l4.7,17.8l8,0.1l5.8-17.8c1.8-5.4,3.8-11.8,5.3-17.7h0.2
	c-0.1,6.7,0,13.3,0.2,18.8L151.5,566.2z M183.7,547.1l2.8-9.7c0.8-2.6,1.5-6.1,2.2-8.8h0.1c0.6,2.7,1.4,6.1,2.2,8.8l2.7,9.7
	L183.7,547.1z M195.2,555l3.4,11.8l11.1,0.1L196.1,521l-13.6-0.2L168,566.4l10.7,0.1l3.4-11.7L195.2,555z M226.3,567.1l0.2-13.8
	c0.1-7.5,0-13.9-0.2-20l0.2-0.1c2.2,5.4,5.1,11.4,7.8,16.3l9.6,17.8l10.9,0.1l0.6-45.7l-9.5-0.1l-0.1,13.4c-0.1,6.9,0.1,13,0.7,19.1
	H246c-1.9-5.2-4.6-10.9-7.3-15.8l-9.3-16.9l-12.1-0.1l-0.6,45.7L226.3,567.1z M291.6,529.6c0.9-0.1,2.2-0.3,4.4-0.2
	c4.7,0.1,7.3,1.9,7.2,5.4c0,3.4-3,5.6-8.4,5.5l-3.4,0L291.6,529.6z M291.4,547.6l3.5,0c5.2,0.1,9.3,2,9.2,6.6
	c-0.1,4.8-4.2,6.6-8.9,6.5c-1.8,0-3,0-4-0.2L291.4,547.6z M280.9,567.5c2.3,0.4,6.1,0.8,11.2,0.8c9.1,0.1,14.7-1.3,18.1-3.9
	c2.9-2.3,4.8-5.5,4.9-9.6c0.1-5.9-3.8-9.9-9-11.4v-0.1c5.2-1.8,7.6-5.6,7.7-9.7c0.1-4.1-2.2-7.3-5.4-9.1c-3.3-2-7.2-2.6-13.5-2.7
	c-5.2-0.1-10.7,0.3-13.4,0.8L280.9,567.5z M334.8,548.9l2.8-9.7c0.8-2.6,1.5-6.1,2.2-8.8h0.1c0.6,2.7,1.4,6.1,2.2,8.8l2.7,9.8
	L334.8,548.9z M346.4,556.8l3.4,11.8l11.1,0.1l-13.6-45.9l-13.6-0.2l-14.5,45.6l10.7,0.1l3.4-11.7L346.4,556.8z M367.9,568.8
	l10.2,0.1l0.2-14.9l4-4.8l10.9,19.9l12.1,0.1l-15.6-26.4l15.4-19.3l-12.7-0.1l-10.6,15.1c-1,1.6-2.2,3.3-3.2,5h-0.2l0.3-20.2
	l-10.3-0.1L367.9,568.8z M425.5,550.1l2.9-9.7c0.8-2.6,1.5-6.1,2.2-8.8h0.1c0.6,2.7,1.4,6.1,2.2,8.8l2.7,9.7L425.5,550.1z
	 M437.1,557.9l3.4,11.8l11.1,0.1l-13.6-45.9l-13.6-0.2l-14.5,45.6l10.7,0.1l3.4-11.7L437.1,557.9z M468.1,570l0.1-13.8
	c0.1-7.5,0-13.9-0.1-20l0.2-0.1c2.2,5.4,5.1,11.4,7.8,16.3l9.6,17.8l10.8,0.1l0.6-45.7l-9.5-0.1l-0.1,13.4c-0.1,6.9,0,13,0.7,19.1
	h-0.2c-2-5.2-4.6-10.9-7.3-15.8l-9.3-16.9l-12.1-0.1l-0.6,45.7L468.1,570z M507.3,570.5l28.6,0.4l0.1-8.7l-18.2-0.3l0.5-37
	l-10.4-0.1L507.3,570.5z M543.4,525.2l-0.6,45.8l10.4,0.1l0.6-45.7L543.4,525.2z M576.2,514.3c0,5,2.7,8.6,9.4,8.7
	c6.4,0.1,9.4-3.5,9.6-8.4l-5.3-0.1c-0.3,1.7-1.5,3.1-4.3,3.1c-2.8,0-3.8-1.7-4-3.2L576.2,514.3z M602.2,545.5l-17-0.2l-0.1,8.1
	l7.1,0.1l-0.1,9.6c-0.8,0.4-2.7,0.7-5.1,0.6c-8.4-0.1-14.3-5.7-14.2-15.2c0.1-9.9,6.7-14.7,15.3-14.6c5,0.1,8.1,1,10.7,2.1l2.3-8.2
	c-2.2-1.1-6.8-2.3-12.7-2.4c-15-0.2-26.2,8.4-26.4,23.6c-0.2,6.7,2.1,12.7,6.2,16.7c4.2,4.2,10.2,6.3,18.5,6.4
	c6,0.1,12.1-1.3,15.3-2.4L602.2,545.5z M612.6,526.1l-0.6,45.8l10.4,0.1l0.6-45.8L612.6,526.1z M431.8,347.6c1.8,0,3.6-0.6,5-1.8
	l1.7-1.4l-0.7-2.3L432,342c-1.8,0-3.6,0.6-5,1.8l-1.7,1.4l0.7,2.2L431.8,347.6 M439.4,339.5c1.8-0.1,3.5-0.9,4.9-2.2l1.6-1.5
	l-0.9-2.2l-5.8,0.3c-1.8,0.1-3.5,0.9-4.9,2.1l-1.6,1.5l0.9,2.2L439.4,339.5 M446.5,331c1.8-0.2,3.5-1.1,4.7-2.5l1.5-1.6l-1-2.2
	l-5.7,0.8c-1.8,0.2-3.5,1.1-4.7,2.5l-1.5,1.6l1,2.1L446.5,331 M453,322c1.8-0.4,3.4-1.4,4.5-2.8l1.3-1.7l-1.2-2.1l-5.7,1.1
	c-1.8,0.4-3.4,1.4-4.5,2.8l-1.3,1.7l1.2,2.1L453,322 M458.8,312.5c1.8-0.4,3.3-1.6,4.3-3.1l1.2-1.9l-1.3-1.9l-5.6,1.5
	c-1.7,0.4-3.3,1.6-4.3,3.1l-1.2,1.9l1.3,1.9L458.8,312.5 M464,302.7c1.7-0.6,3.2-1.8,4.1-3.5l1.1-1.9l-1.5-1.9l-5.5,1.9
	c-1.7,0.6-3.2,1.8-4.1,3.5l-1.1,1.9l1.4,1.9L464,302.7 M468.5,292.5c1.7-0.7,3-2,3.9-3.7l1-2l-1.6-1.7l-5.3,2.3
	c-1.7,0.7-3,2-3.8,3.7l-1,1.9l1.6,1.8L468.5,292.5 M472.2,282c1.6-0.8,2.9-2.2,3.6-4l0.8-2l-1.7-1.7l-5.2,2.6
	c-1.6,0.8-2.9,2.3-3.6,4l-0.8,2.1l1.7,1.7L472.2,282 M475.2,271.3c1.5-1,2.7-2.5,3.3-4.2l0.7-2.1l-1.8-1.5l-5,3
	c-1.5,0.9-2.7,2.4-3.3,4.2l-0.7,2.1l1.8,1.5L475.2,271.3 M477.4,260.4c1.5-1,2.6-2.6,3-4.4l0.6-2.2l-1.9-1.4l-4.7,3.4
	c-1.5,1-2.6,2.6-3,4.4l-0.5,2.1l1.9,1.4L477.4,260.4 M478.9,249.4c1.4-1.2,2.4-2.8,2.7-4.6l0.3-2.2l-2-1.3l-4.5,3.7
	c-1.4,1.2-2.3,2.8-2.7,4.6l-0.4,2.1l2,1.3L478.9,249.4 M479.6,238.3c1.3-1.2,2.2-2.9,2.3-4.8l0.2-2.2l-2.1-1.1l-4.2,4
	c-1.3,1.3-2.1,3-2.4,4.8l-0.2,2.2l2.1,1.1L479.6,238.3 M479.6,227.2c1.2-1.3,1.9-3.1,2-5l0.1-2.2l-2.1-1l-3.9,4.2
	c-1.2,1.3-1.9,3.1-2,5l-0.1,2.2l2.1,1L479.6,227.2 M478.7,216.1c1.1-1.4,1.7-3.2,1.7-5.1l-0.1-2.2l-2.2-0.8l-3.6,4.5
	c-1.2,1.4-1.7,3.2-1.7,5.1l0.1,2.2l2.2,0.8L478.7,216.1 M477.1,205.1c1-1.5,1.5-3.3,1.3-5.2l-0.2-2.2l-2.3-0.7l-3.3,4.8
	c-1,1.5-1.5,3.3-1.3,5.2l0.2,2.2l2.3,0.7L477.1,205.1 M474.7,194.3c0.9-1.6,1.2-3.5,0.9-5.3l-0.4-2.1l-2.3-0.5l-2.9,5
	c-1,1.6-1.3,3.4-1,5.3l0.4,2.1l2.3,0.6L474.7,194.3 M471.6,183.6c0.8-1.6,1-3.5,0.6-5.3l-0.6-2.1l-2.3-0.4l-2.6,5.2
	c-0.8,1.6-1,3.5-0.5,5.3l0.5,2.1l2.4,0.3L471.6,183.6 M467.7,173.2c0.7-1.7,0.8-3.6,0.2-5.3l-0.7-2.1l-2.4-0.2l-2.2,5.3
	c-0.7,1.7-0.8,3.6-0.2,5.4l0.7,2.1l2.4,0.2L467.7,173.2 M463.1,163c0.6-1.7,0.5-3.6-0.2-5.3l-0.8-2h-2.4l-1.9,5.5
	c-0.6,1.7-0.5,3.6,0.2,5.4l0.8,2l2.4,0L463.1,163 M457.9,153.3c0.5-1.7,0.3-3.6-0.6-5.3l-1-2l-2.4,0.1l-1.5,5.6
	c-0.4,1.8-0.3,3.6,0.6,5.3l1,2l2.4-0.1L457.9,153.3 M451.9,143.9c0.3-1.8,0-3.7-0.9-5.3l-1.1-1.9l-2.4,0.3l-1,5.7
	c-0.4,1.8,0,3.7,0.9,5.3l1.1,1.9l2.4-0.3L451.9,143.9 M445.3,134.9c0.2-1.8-0.2-3.7-1.3-5.2l-1.2-1.8l-2.3,0.5l-0.7,5.7
	c-0.2,1.8,0.3,3.7,1.3,5.2l1.2,1.8l2.3-0.5L445.3,134.9 M438.1,126.4c0.1-1.8-0.5-3.6-1.7-5.1l-1.4-1.7l-2.3,0.6l-0.3,5.8
	c-0.1,1.8,0.5,3.6,1.7,5.1l1.4,1.8l2.3-0.6L438.1,126.4 M430.3,118.5c-0.1-1.8-0.8-3.6-2-5l-1.5-1.6l-2.2,0.8l0.1,5.8
	c0.1,1.8,0.8,3.6,2,5l1.5,1.6l2.2-0.8L430.3,118.5 M422,111.1c-0.2-1.8-1-3.5-2.4-4.8l-1.6-1.5l-2.1,1l0.5,5.8
	c0.2,1.8,1,3.5,2.4,4.8l1.6,1.5l2.2-1L422,111.1 M413.2,104.3c-0.3-1.8-1.3-3.5-2.7-4.6l-1.7-1.4l-2.1,1.1l0.9,5.7
	c0.3,1.8,1.2,3.4,2.7,4.6l1.7,1.4l2.1-1.1L413.2,104.3 M404,98.2c-0.4-1.8-1.5-3.3-3-4.4l-1.8-1.3l-2,1.2l1.4,5.6
	c0.4,1.7,1.5,3.3,3,4.4l1.8,1.3l2.1-1.2L404,98.2 M394.3,92.7c-0.5-1.7-1.7-3.2-3.3-4.2l-1.9-1.2l-1.9,1.4l1.7,5.5
	c0.5,1.7,1.7,3.2,3.3,4.2l1.9,1.2l1.9-1.4L394.3,92.7 M384.3,87.9c-0.7-1.7-1.9-3.1-3.6-4l-1.9-1l-1.8,1.5l2.1,5.4
	c0.7,1.7,1.9,3.1,3.6,4l1.9,1l1.8-1.5L384.3,87.9 M374,83.8c-0.8-1.7-2.1-2.9-3.9-3.7l-2-0.9l-1.7,1.6l2.5,5.2
	c0.8,1.7,2.1,3,3.9,3.7l2,0.9l1.7-1.6L374,83.8 M363.4,80.4c-0.9-1.6-2.3-2.8-4.1-3.5l-2.1-0.7l-1.6,1.7l2.8,5.1
	c0.9,1.6,2.3,2.8,4.1,3.4l2.1,0.8l1.6-1.7L363.4,80.4 M352.5,77.8c-1-1.5-2.5-2.6-4.3-3.1l-2.1-0.6l-1.5,1.9l3.2,4.8
	c1,1.5,2.5,2.6,4.3,3.1l2.1,0.6l1.5-1.9L352.5,77.8 M341.6,75.9c-1.1-1.5-2.7-2.5-4.6-2.8l-2.1-0.5l-1.4,1.9l3.5,4.6
	c1.1,1.4,2.7,2.4,4.5,2.8l2.2,0.5l1.3-2L341.6,75.9 M330.5,74.8c-1.2-1.4-2.9-2.3-4.7-2.5l-2.2-0.3l-1.2,2l3.9,4.4
	c1.2,1.4,2.8,2.2,4.7,2.5l2.2,0.3l1.2-2.1L330.5,74.8 M319.4,74.5c-1.3-1.3-3-2-4.9-2.2l-2.2-0.2l-1.1,2.1l4.1,4.1
	c1.3,1.3,3,2,4.9,2.1l2.2,0.2l1-2.1L319.4,74.5 M308.3,75c-1.4-1.2-3.1-1.8-5.1-1.8h-2.2l-0.9,2.2l4.4,3.8c1.4,1.2,3.2,1.8,5.1,1.8
	h2.2l0.9-2.2L308.3,75 M297.3,76.2c-1.5-1.1-3.3-1.6-5.2-1.5l-2.2,0.2l-0.8,2.2l4.6,3.4c1.5,1.1,3.3,1.6,5.2,1.5l2.2-0.1l0.8-2.2
	L297.3,76.2 M286.3,78.2c-1.5-1-3.4-1.4-5.2-1.1l-2.2,0.3l-0.6,2.3l4.9,3.1c1.5,1,3.4,1.4,5.2,1.1l2.2-0.3l0.6-2.3L286.3,78.2
	 M275.6,80.9c-1.6-0.9-3.5-1.1-5.3-0.8l-2.1,0.5l-0.5,2.3l5.1,2.8c1.5,0.9,3.4,1.1,5.3,0.7l2.1-0.5l0.4-2.4L275.6,80.9 M265,84.4
	c-1.7-0.8-3.5-0.9-5.3-0.4l-2.1,0.6l-0.3,2.4l5.3,2.4c1.7,0.8,3.5,0.9,5.3,0.4l2.1-0.6l0.3-2.4L265,84.4 M254.7,88.7
	c-1.7-0.6-3.6-0.6-5.4,0l-2.1,0.8l-0.1,2.4l5.4,2.1c1.7,0.6,3.6,0.6,5.3,0l2.1-0.8l0.1-2.4L254.7,88.7 M244.8,93.6
	c-1.7-0.5-3.6-0.4-5.3,0.4l-2,0.9l0.1,2.4l5.6,1.7c1.7,0.5,3.6,0.4,5.3-0.4l2-0.9l-0.1-2.4L244.8,93.6 M235.2,99.2
	c-1.8-0.4-3.6-0.1-5.3,0.8l-1.9,1l0.2,2.4l5.6,1.3c1.8,0.4,3.7,0.1,5.3-0.8l1.9-1l-0.2-2.4L235.2,99.2 M226,105.5
	c-1.8-0.3-3.7,0.1-5.2,1.1l-1.9,1.2l0.4,2.3l5.7,0.9c1.8,0.3,3.6-0.1,5.2-1.1l1.9-1.2l-0.4-2.3L226,105.5 M217.3,112.4
	c-1.8-0.2-3.7,0.4-5.1,1.5l-1.8,1.3l0.6,2.3l5.8,0.5c1.8,0.1,3.6-0.4,5.1-1.5l1.8-1.3l-0.5-2.3L217.3,112.4 M209,119.9
	c-1.8,0-3.6,0.6-5.1,1.8l-1.7,1.4l0.7,2.3l5.8,0.1c1.8,0,3.6-0.6,5-1.8l1.7-1.4l-0.7-2.3L209,119.9 M201.4,127.9
	c-1.8,0.1-3.5,0.9-4.9,2.2l-1.6,1.5l0.9,2.2l5.8-0.3c1.8-0.1,3.5-0.9,4.9-2.1l1.6-1.6l-0.9-2.2L201.4,127.9 M194.3,136.5
	c-1.8,0.2-3.5,1.1-4.7,2.5l-1.5,1.6l1,2.2l5.7-0.8c1.8-0.2,3.5-1.1,4.7-2.5l1.5-1.6l-1-2.1L194.3,136.5 M187.8,145.5
	c-1.8,0.4-3.4,1.4-4.5,2.8l-1.3,1.7l1.2,2.1l5.7-1.1c1.8-0.3,3.4-1.3,4.5-2.8l1.4-1.7l-1.2-2.1L187.8,145.5 M182,155
	c-1.7,0.5-3.3,1.6-4.3,3.1l-1.2,1.9l1.3,1.9l5.6-1.5c1.7-0.5,3.3-1.6,4.3-3.1l1.2-1.9l-1.3-2L182,155 M176.8,164.8
	c-1.7,0.6-3.1,1.8-4.1,3.5l-1.1,1.9l1.5,1.9l5.5-1.9c1.7-0.6,3.2-1.8,4.1-3.4l1.1-1.9l-1.4-1.9L176.8,164.8 M172.3,175
	c-1.7,0.7-3,2-3.9,3.7l-1,2l1.6,1.7l5.3-2.3c1.7-0.7,3-2,3.8-3.7l1-1.9l-1.6-1.8L172.3,175 M168.6,185.5c-1.6,0.9-2.9,2.2-3.6,4
	l-0.8,2l1.7,1.7l5.1-2.6c1.6-0.8,2.9-2.3,3.6-4l0.8-2.1l-1.7-1.7L168.6,185.5 M165.6,196.2c-1.5,0.9-2.7,2.4-3.3,4.2l-0.7,2.1
	l1.8,1.5l5-3c1.5-1,2.7-2.4,3.3-4.2l0.7-2.1l-1.8-1.5L165.6,196.2 M163.4,207c-1.5,1.1-2.5,2.6-3,4.4l-0.5,2.1l1.9,1.4l4.7-3.4
	c1.5-1,2.6-2.6,3-4.4l0.5-2.1l-1.9-1.4L163.4,207 M161.9,218.1c-1.4,1.2-2.4,2.8-2.7,4.6l-0.4,2.2l2,1.3l4.5-3.7
	c1.4-1.2,2.3-2.8,2.6-4.6l0.4-2.1l-2-1.3L161.9,218.1 M161.2,229.1c-1.3,1.2-2.2,2.9-2.4,4.8l-0.2,2.2l2.1,1.1l4.2-4
	c1.3-1.3,2.1-3,2.3-4.8l0.2-2.2l-2.1-1.1L161.2,229.1 M161.2,240.3c-1.3,1.3-1.9,3.1-2,5l-0.1,2.2l2.2,1l3.9-4.3
	c1.2-1.3,1.9-3.1,2-5l0.1-2.2l-2.1-1L161.2,240.3 M162.1,251.3c-1.1,1.4-1.7,3.2-1.7,5.1l0.1,2.2l2.2,0.8l3.6-4.5
	c1.1-1.4,1.7-3.2,1.7-5.1l-0.1-2.2l-2.2-0.8L162.1,251.3 M163.7,262.3c-1,1.5-1.5,3.3-1.3,5.2l0.2,2.2l2.3,0.7l3.3-4.8
	c1-1.5,1.5-3.3,1.3-5.2l-0.2-2.2l-2.3-0.6L163.7,262.3 M166.1,273.2c-0.9,1.6-1.3,3.5-0.9,5.3l0.4,2.1l2.3,0.6l2.9-5
	c1-1.6,1.3-3.4,1-5.3l-0.4-2.2l-2.3-0.5L166.1,273.2 M169.2,283.9c-0.8,1.6-1,3.5-0.6,5.3l0.5,2.1l2.4,0.4l2.6-5.2
	c0.8-1.6,1-3.5,0.6-5.3l-0.5-2.1l-2.4-0.4L169.2,283.9 M173.1,294.3c-0.7,1.7-0.8,3.6-0.2,5.3l0.7,2.1l2.4,0.2l2.2-5.3
	c0.7-1.7,0.8-3.6,0.2-5.3l-0.7-2.1l-2.4-0.2L173.1,294.3 M177.7,304.4c-0.6,1.7-0.5,3.6,0.2,5.3l0.8,2l2.4,0l1.8-5.5
	c0.6-1.7,0.5-3.6-0.2-5.4l-0.8-2l-2.4,0L177.7,304.4 M182.9,314.2c-0.4,1.7-0.3,3.6,0.6,5.3l1,2l2.4-0.1l1.5-5.6
	c0.4-1.8,0.3-3.6-0.6-5.3l-1-2l-2.4,0.1L182.9,314.2 M188.9,323.6c-0.3,1.8,0,3.6,0.9,5.3l1.1,1.9l2.3-0.3l1.1-5.7
	c0.3-1.8,0-3.6-0.9-5.3l-1.1-1.9l-2.4,0.3L188.9,323.6 M195.5,332.5c-0.2,1.8,0.3,3.7,1.3,5.2l1.2,1.8l2.3-0.5l0.7-5.7
	c0.2-1.9-0.2-3.7-1.3-5.2l-1.2-1.8l-2.3,0.5L195.5,332.5 M202.7,341c-0.1,1.8,0.5,3.6,1.6,5.1l1.4,1.7l2.3-0.6l0.3-5.8
	c0.1-1.8-0.5-3.6-1.7-5.1l-1.4-1.7l-2.3,0.6L202.7,341 M210.5,349c0,1.8,0.8,3.6,2,5l1.5,1.6l2.2-0.8L216,349c-0.1-1.8-0.7-3.6-2-5
	l-1.5-1.6l-2.2,0.8L210.5,349 M218.8,356.3c0.2,1.8,1,3.5,2.4,4.8l1.6,1.5l2.2-1l-0.6-5.8c-0.1-1.8-1-3.5-2.4-4.8l-1.6-1.5l-2.1,0.9
	L218.8,356.3 M227.6,363.1c0.3,1.8,1.2,3.5,2.7,4.6l1.7,1.4l2.1-1.1l-0.9-5.7c-0.3-1.8-1.2-3.4-2.7-4.6l-1.7-1.4l-2.1,1.1
	L227.6,363.1 M236.8,369.3c0.4,1.8,1.5,3.3,3,4.4l1.8,1.3l2.1-1.2l-1.4-5.6c-0.4-1.8-1.5-3.3-3-4.4l-1.8-1.3l-2.1,1.2L236.8,369.3
	 M246.5,374.8c0.5,1.7,1.7,3.2,3.3,4.2l1.9,1.2l1.9-1.4l-1.7-5.5c-0.5-1.7-1.7-3.2-3.3-4.2l-1.8-1.1l-1.9,1.4L246.5,374.8
	 M256.5,379.6c0.7,1.7,1.9,3.1,3.6,4l1.9,1l1.8-1.5l-2.1-5.4c-0.7-1.7-1.9-3.1-3.6-4l-1.9-1l-1.8,1.5L256.5,379.6 M266.8,383.7
	c0.8,1.7,2.1,2.9,3.9,3.7l2,0.9l1.7-1.6l-2.5-5.2c-0.8-1.6-2.1-3-3.9-3.7l-2-0.9l-1.7,1.6L266.8,383.7 M277.5,387.1
	c0.9,1.6,2.3,2.8,4.1,3.4l2.1,0.7l1.6-1.7l-2.8-5.1c-0.9-1.6-2.4-2.8-4.1-3.4l-2.1-0.8l-1.6,1.7L277.5,387.1 M288.2,389.7
	c1,1.5,2.5,2.6,4.3,3.1l2.1,0.6l1.5-1.8l-3.2-4.8c-1-1.5-2.5-2.6-4.3-3.2l-2.1-0.6l-1.5,1.9L288.2,389.7 M299.2,391.5
	c1.1,1.5,2.7,2.5,4.5,2.8l2.1,0.5l1.4-1.9l-3.5-4.6c-1.1-1.4-2.7-2.5-4.5-2.8L297,385l-1.3,2L299.2,391.5 M310.3,392.7
	c1.2,1.4,2.9,2.2,4.7,2.5l2.2,0.3l1.2-2l-3.8-4.4c-1.2-1.4-2.9-2.2-4.7-2.5l-2.2-0.3l-1.2,2.1L310.3,392.7 M321.4,393
	c1.3,1.3,3,2.1,4.9,2.2l2.2,0.1l1.1-2.1l-4.1-4.1c-1.3-1.3-3-2-4.9-2.1l-2.2-0.2l-1.1,2.1L321.4,393 M332.5,392.5
	c1.4,1.2,3.1,1.8,5.1,1.8h2.2l0.9-2.2l-4.4-3.8c-1.4-1.2-3.2-1.8-5.1-1.8H329l-0.9,2.2L332.5,392.5 M343.6,391.3
	c1.4,1.1,3.3,1.6,5.1,1.5l2.2-0.1l0.8-2.3l-4.6-3.4c-1.5-1.1-3.3-1.6-5.2-1.5l-2.2,0.1l-0.7,2.2L343.6,391.3 M354.5,389.3
	c1.5,1,3.4,1.4,5.2,1.1l2.2-0.3l0.6-2.3l-4.9-3.1c-1.5-1-3.4-1.4-5.2-1.1l-2.2,0.3l-0.6,2.3L354.5,389.3 M365.3,386.5
	c1.6,0.9,3.5,1.1,5.3,0.7l2.1-0.5l0.4-2.3l-5.1-2.8c-1.6-0.8-3.5-1.1-5.3-0.7l-2.1,0.5l-0.4,2.3L365.3,386.5 M375.8,383
	c1.7,0.8,3.5,0.9,5.3,0.4l2.1-0.6l0.3-2.4l-5.3-2.4c-1.7-0.8-3.5-0.9-5.3-0.3l-2.1,0.6l-0.2,2.4L375.8,383 M386.1,378.8
	c1.7,0.6,3.6,0.6,5.4,0l2-0.8l0.1-2.3l-5.4-2.1c-1.7-0.6-3.6-0.6-5.3,0l-2.1,0.8l-0.1,2.4L386.1,378.8 M396.1,373.9
	c1.7,0.5,3.6,0.4,5.3-0.4l2-0.9l-0.1-2.4l-5.5-1.7c-1.7-0.5-3.6-0.4-5.4,0.3l-2,0.9l0.1,2.4L396.1,373.9 M405.6,368.3
	c1.8,0.4,3.7,0.1,5.3-0.8l1.9-1l-0.2-2.4l-5.6-1.2c-1.8-0.4-3.7-0.1-5.3,0.7l-1.9,1l0.2,2.4L405.6,368.3 M414.8,362
	c1.8,0.3,3.6-0.1,5.2-1.1l1.9-1.2l-0.4-2.3l-5.7-0.9c-1.8-0.3-3.7,0.1-5.2,1.1l-1.9,1.2l0.4,2.3L414.8,362 M423.5,355.1
	c1.8,0.2,3.6-0.3,5.1-1.5l1.8-1.3l-0.6-2.3l-5.8-0.5c-1.8-0.2-3.6,0.4-5.1,1.5l-1.8,1.3l0.5,2.3L423.5,355.1 M318.5,108.3l3.3,10.9
	l3.7-10.9l11.4,0.2l-9.2-6.8l3.7-10.7l-9.3,6.6l-9.1-6.8l3.5,10.9l-9.3,6.5L318.5,108.3z M270.6,118.6l7.2,8.8l-0.8-11.4l10.5-4.2
	l-11.1-2.8l-0.7-11.3l-6.1,9.7l-11-2.8l7.4,8.7l-6.1,9.6L270.6,118.6z M230.4,146.4l10,5.3l-5.1-10.2l8.2-7.9l-11.4,1.7l-5-10.2
	l-1.9,11.3l-11.3,1.6l10.2,5.3l-2,11.2L230.4,146.4z M203.8,187.5l11.3,1.1l-8.7-7.5l4.5-10.5l-9.8,5.9l-8.5-7.5l2.6,11.2l-9.8,5.8
	l11.4,1l2.5,11.1L203.8,187.5z M195,235.6l10.9-3.3l-10.9-3.6l0.2-11.4l-6.8,9.2l-10.8-3.7l6.6,9.3l-6.8,9.1l10.9-3.5l6.5,9.3
	L195,235.6z M205.3,283.5l8.7-7.3l-11.4,0.8l-4.2-10.6l-2.8,11.1l-11.3,0.7l9.7,6.1l-2.9,11l8.8-7.3l9.6,6.1L205.3,283.5z
	 M233.1,323.8l5.3-10.1l-10.2,5.1l-7.9-8.2l1.7,11.4l-10.2,5l11.3,1.9l1.6,11.2l5.3-10.1l11.2,1.9L233.1,323.8z M274.2,350.3
	l1.1-11.3l-7.5,8.6l-10.4-4.5l5.9,9.8l-7.5,8.5l11.1-2.6l5.8,9.8l1-11.4l11.1-2.5L274.2,350.3z M322.3,359.1l-3.3-10.9l-3.7,10.9
	l-11.4-0.2l9.2,6.8l-3.7,10.7l9.3-6.6l9.1,6.8l-3.5-10.9l9.3-6.5L322.3,359.1z M370.1,348.9l-7.2-8.8l0.8,11.4l-10.5,4.2l11.1,2.8
	l0.7,11.3l6.1-9.7l11,2.8l-7.4-8.8l6.1-9.6L370.1,348.9z M410.4,321.1l-10-5.3l5.1,10.2l-8.2,7.9l11.4-1.7l5,10.2l1.9-11.3l11.2-1.6
	l-10.1-5.3l2-11.2L410.4,321.1z M437,280l-11.3-1.1l8.7,7.5l-4.6,10.4l9.8-5.9l8.5,7.5l-2.6-11.2l9.8-5.8l-11.4-1l-2.5-11.1L437,280
	z M445.8,231.8l-10.9,3.3l10.9,3.7l-0.2,11.3l6.8-9.2l10.8,3.7l-6.7-9.3l6.8-9.1l-10.9,3.4l-6.5-9.3L445.8,231.8z M435.5,184
	l-8.8,7.2l11.4-0.8l4.2,10.5l2.8-11.1l11.3-0.7l-9.7-6.1l2.8-11l-8.8,7.3l-9.6-6.1L435.5,184z M407.7,143.7l-5.3,10l10.2-5.1
	l7.9,8.2l-1.7-11.4l10.2-5l-11.3-1.9l-1.6-11.2l-5.3,10.1l-11.2-1.9L407.7,143.7z M366.6,117.1l-1.1,11.3l7.5-8.7l10.4,4.6l-5.9-9.8
	l7.5-8.5l-11.2,2.6l-5.8-9.8l-1,11.4l-11.1,2.5L366.6,117.1z M321.7,128.8c57.8,0.7,104.3,48.4,103.6,106.2
	c-0.7,57.9-48.4,104.3-106.2,103.6c-57.9-0.7-104.4-48.4-103.6-106.2C216.2,174.6,263.8,128.1,321.7,128.8 M319.1,341.8
	c59.6,0.7,108.7-47.2,109.4-106.8c0.8-59.6-47.1-108.7-106.7-109.4c-59.6-0.8-108.7,47.2-109.4,106.7
	C211.6,292,259.5,341.1,319.1,341.8 M342.2,279.5l-0.1,7.2l-6.8,2.1l6.8,2.3l-0.1,7.2l4.3-5.8l6.8,2.3l-3.1-4.3l-1.1-1.6l4.3-5.7
	l-6.8,2.1L344,282L342.2,279.5z M306.3,303.3c3.5,3.1,8,5.1,13,5.1l1,0c3.1-0.1,6-0.9,8.6-2.4c2.9-1.5,5.4-3.9,7.2-6.6
	c-2.3,2.5-5.4,4.2-8.8,4.8l-3,0.3h0c-5.2-0.1-9.7-2.6-12.6-6.5c-1.9-2.7-3.1-6-3-9.6l0.5-3.9c1.1-3.9,3.5-7.1,6.8-9.2l2.1-1.1
	c2-0.9,4.2-1.4,6.6-1.3c4.7,0.1,8.8,2.1,11.7,5.4c-3.4-5.6-9.6-9.3-16.6-9.4c-2.1,0-4,0.3-5.9,0.8l-2.4,0.9
	c-3.6,1.6-6.6,4.2-8.7,7.5c-1.9,3-3,6.6-3.1,10.4C299.7,294.3,302.3,299.7,306.3,303.3 M258.6,201.9c18-26.5,47.9-42.1,79.9-41.7
	c26.1,0.3,50.9,11.4,68.6,30.5c-15.6-32.3-48.3-53.3-84.5-53.7c-41.4-0.5-78,25.4-91.3,64.5c3.4-0.3,6.8-0.5,10-0.4
	c5.5,0.1,11.1,0.6,16.7,1.7L258.6,201.9z M293.4,217.1c18.3-20.1,44.4-31.3,71.5-31c14,0.2,30.6,4.6,43.2,10.8
	c-17-19.4-43.8-31.7-69.6-32.1c-30.2-0.4-58.3,14.2-75.6,38.9C273.8,206.4,284,210.9,293.4,217.1 M321.4,245.4
	c18.3-27,48.5-42.8,81-42.4c2.5,0,5.1,0.2,7.7,0.4c-13.7-8.2-29.3-12.6-45.3-12.8c-25.6-0.3-50.2,10.2-67.6,29
	C306.8,226.8,314.9,235.4,321.4,245.4"/>
</svg>
