<svg viewBox="0 0 66 66" xml:space="preserve" xmlns="http://www.w3.org/2000/svg" enable-background="new 0 0 66 66"><path d="M58.87 29.26v-1.44c0-1.1-.89-1.99-1.99-1.99-.76 0-1.41.43-1.75 1.05l-20.21-8.03c0-.03.01-.05.01-.08 0-.28-.22-.5-.5-.5-.17 0-.32.09-.41.22l-.84-.33a.475.475 0 0 0-.37 0l-2.64 1.05a2.12 2.12 0 0 1-.06-.44c0-1.05.86-1.9 1.91-1.9.28 0 .5-.22.5-.5v-1.99h1.95c.18 0 .34-.1.43-.25l2.46-4.26c.09-.15.09-.35 0-.5L34.9 5.11a.504.504 0 0 0-.43-.25h-.41V3.31c0-.28-.22-.5-.5-.5s-.5.22-.5.5v1.55h-2.1V2c0-.28-.22-.5-.5-.5s-.5.22-.5.5v2.86h-.41c-.18 0-.34.1-.43.25l-2.46 4.26c-.09.15-.09.35 0 .5l2.46 4.26c.09.15.25.25.43.25h1.96v1.54a2.91 2.91 0 0 0-2.41 2.86c0 .28.05.55.13.81l-18.32 7.28a1.99 1.99 0 0 0-1.73-1.03c-1.1 0-1.99.89-1.99 1.99v1.42c-.61.2-1.06.77-1.06 1.45v32.27c0 .85.69 1.54 1.54 1.54h50.64c.85 0 1.54-.69 1.54-1.54V30.69c0-.65-.4-1.21-.98-1.43zM29.86 13.37l-2.17-3.76 2.17-3.76h4.33l2.17 3.76-2.17 3.76h-4.33zm26.02 14.45c0-.55.45-.99.99-.99.55 0 .99.45.99.99v1.33h-1.99v-1.33zM33 19.16l.79.31a1.9 1.9 0 0 1-1.76 1.2c-.54 0-1.02-.23-1.37-.59l2.34-.92zm-21.81 8.67 18.5-7.35c.53.72 1.38 1.2 2.34 1.2 1.22 0 2.26-.76 2.69-1.83l20.16 8.01v1.32c-.44.05-.84.27-1.1.64l-2.2 3.17a.54.54 0 0 1-.44.23h-36.3a.54.54 0 0 1-.44-.23l-2.2-3.17c-.24-.35-.61-.56-1.02-.63v-1.36zm-2.99-.01c0-.55.45-.99.99-.99.55 0 .99.45.99.99v1.33H8.2v-1.33zm50.65 35.14c0 .3-.24.54-.54.54H7.68c-.3 0-.54-.24-.54-.54V30.69c0-.3.24-.54.54-.54H10.95c.18 0 .34.09.44.23l2.2 3.17c.29.41.76.66 1.26.66h36.31c.5 0 .98-.25 1.26-.66l2.2-3.17c.1-.14.27-.23.44-.23h3.28c.3 0 .54.24.54.54v32.27z" fill="#ffffff" class="fill-000000"></path><path d="M12.58 37.44c-1.36 0-2.46 1.1-2.46 2.46v18.54c0 1.36 1.1 2.46 2.46 2.46 1.36 0 2.46-1.1 2.46-2.46V39.9c0-1.36-1.1-2.46-2.46-2.46zm1.46 21c0 .81-.66 1.46-1.46 1.46s-1.46-.66-1.46-1.46V39.9c0-.81.66-1.46 1.46-1.46s1.46.66 1.46 1.46v18.54zM20.75 37.44c-1.36 0-2.46 1.1-2.46 2.46v18.54c0 1.36 1.1 2.46 2.46 2.46 1.36 0 2.46-1.1 2.46-2.46V39.9c0-1.36-1.11-2.46-2.46-2.46zm1.46 21c0 .81-.66 1.46-1.46 1.46s-1.46-.66-1.46-1.46V39.9c0-.81.66-1.46 1.46-1.46s1.46.66 1.46 1.46v18.54zM28.92 37.44c-1.36 0-2.46 1.1-2.46 2.46v18.54c0 1.36 1.1 2.46 2.46 2.46s2.46-1.1 2.46-2.46V39.9c0-1.36-1.11-2.46-2.46-2.46zm1.46 21c0 .81-.66 1.46-1.46 1.46s-1.46-.66-1.46-1.46V39.9c0-.81.66-1.46 1.46-1.46s1.46.66 1.46 1.46v18.54zM37.08 37.44c-1.36 0-2.46 1.1-2.46 2.46v18.54c0 1.36 1.1 2.46 2.46 2.46s2.46-1.1 2.46-2.46V39.9c.01-1.36-1.1-2.46-2.46-2.46zm1.47 21c0 .81-.66 1.46-1.46 1.46s-1.46-.66-1.46-1.46V39.9c0-.81.66-1.46 1.46-1.46s1.46.66 1.46 1.46v18.54zM45.25 37.44c-1.36 0-2.46 1.1-2.46 2.46v18.54c0 1.36 1.1 2.46 2.46 2.46 1.36 0 2.46-1.1 2.46-2.46V39.9c.01-1.36-1.1-2.46-2.46-2.46zm1.47 21c0 .81-.66 1.46-1.46 1.46s-1.46-.66-1.46-1.46V39.9c0-.81.66-1.46 1.46-1.46s1.46.66 1.46 1.46v18.54zM53.42 37.44c-1.36 0-2.46 1.1-2.46 2.46v18.54c0 1.36 1.1 2.46 2.46 2.46 1.36 0 2.46-1.1 2.46-2.46V39.9c0-1.36-1.1-2.46-2.46-2.46zm1.46 21c0 .81-.66 1.46-1.46 1.46s-1.46-.66-1.46-1.46V39.9c0-.81.66-1.46 1.46-1.46s1.46.66 1.46 1.46v18.54zM32.03 7.57c-1.13 0-2.05.92-2.05 2.04s.92 2.04 2.05 2.04 2.04-.92 2.04-2.04-.92-2.04-2.04-2.04zm0 3.09c-.58 0-1.05-.47-1.05-1.04s.47-1.04 1.05-1.04a1.04 1.04 0 1 1 0 2.08z" fill="#ffffff" class="fill-000000"></path></svg>